<svg width="18" height="18" viewBox="0 0 26 26" fill="none" xmlns="http://www.w3.org/2000/svg">
<path d="M9.0544 0.846392C5.9224 1.91919 3.2512 4.26639 1.768 7.22559C1.2496 8.24799 0.875199 9.33519 0.651999 10.4584C0.0831989 13.252 0.479199 16.2256 1.768 18.7744C2.6032 20.4376 3.8056 21.9136 5.26 23.0656C6.6352 24.16 8.2336 24.9664 9.9328 25.42C12.0712 25.996 14.3536 25.9816 16.5136 25.492C18.4648 25.0456 20.308 24.1096 21.7768 22.756C23.332 21.3232 24.4408 19.444 25.0312 17.4208C25.672 15.2104 25.7584 12.856 25.3552 10.5952C21.3232 10.5952 17.2912 10.5952 13.252 10.5952C13.252 12.2656 13.252 13.9432 13.252 15.6136C15.5848 15.6136 17.9248 15.6136 20.2576 15.6136C19.984 17.2192 19.0336 18.6808 17.68 19.588C16.8304 20.1568 15.8584 20.5312 14.8504 20.704C13.8352 20.8768 12.7912 20.8984 11.7832 20.6968C10.7536 20.4952 9.7744 20.0632 8.9176 19.4584C7.5496 18.5008 6.5056 17.0896 5.9728 15.5128C5.4256 13.9072 5.4184 12.1144 5.9728 10.5088C6.3544 9.37839 6.9952 8.32719 7.8376 7.47759C8.8744 6.41199 10.2208 5.65599 11.6752 5.34639C12.9208 5.07999 14.2312 5.13039 15.448 5.49759C16.4848 5.81439 17.4352 6.37599 18.22 7.12479C19.012 6.33999 19.7968 5.54799 20.5888 4.76319C20.9992 4.33839 21.4384 3.93519 21.8416 3.49599C20.6464 2.38719 19.2352 1.49439 17.7016 0.932792C14.9512 -0.0968077 11.8336 -0.118408 9.0544 0.846392Z" fill="white"/>
<path d="M9.05441 0.846399C11.8336 -0.118401 14.9512 -0.0968006 17.716 0.925599C19.2496 1.4872 20.6536 2.38 21.856 3.4888C21.4528 3.9208 21.0208 4.3312 20.6032 4.756C19.8112 5.5408 19.0264 6.3328 18.2344 7.1176C17.4496 6.3688 16.4992 5.8 15.4624 5.4904C14.2456 5.1232 12.9352 5.0728 11.6896 5.3392C10.2352 5.6488 8.88881 6.412 7.85201 7.4704C7.00961 8.32 6.36881 9.3712 5.98721 10.5016C4.58321 9.4144 3.17921 8.32 1.77521 7.2328C3.25121 4.2664 5.92241 1.9192 9.05441 0.846399Z" fill="#E94435"/>
<path d="M0.651999 10.4584C0.875199 9.33519 1.2568 8.24799 1.768 7.22559C3.172 8.31279 4.576 9.40719 5.98 10.4944C5.4256 12.1 5.4328 13.8928 5.98 15.4984C4.576 16.5856 3.172 17.68 1.768 18.7672C0.479199 16.2328 0.0831989 13.252 0.651999 10.4584Z" fill="#F8BB15"/>
<path d="M13.2592 10.588C17.2912 10.588 21.3232 10.588 25.3624 10.588C25.7656 12.8488 25.6792 15.2032 25.0384 17.4136C24.448 19.4368 23.3392 21.3232 21.784 22.7488C20.4232 21.6904 19.0552 20.632 17.7016 19.5736C19.0552 18.6736 20.0056 17.2048 20.2792 15.5992C17.9464 15.5992 15.6064 15.5992 13.2736 15.5992C13.252 13.936 13.2592 12.2656 13.2592 10.588Z" fill="#547DBE"/>
<path d="M1.76801 18.7744C3.17201 17.6872 4.57601 16.5928 5.98001 15.5056C6.5128 17.0896 7.5568 18.4936 8.9248 19.4512C9.7816 20.056 10.7608 20.4808 11.7904 20.6896C12.7984 20.8912 13.8496 20.8696 14.8576 20.6968C15.8656 20.524 16.8376 20.1496 17.6872 19.5808C19.048 20.6392 20.416 21.6976 21.7696 22.756C20.3008 24.1168 18.4576 25.0456 16.5064 25.492C14.3536 25.9816 12.0712 25.996 9.9256 25.42C8.22641 24.9664 6.628 24.16 5.2528 23.0656C3.8056 21.9064 2.60321 20.4304 1.76801 18.7744Z" fill="#34A751"/>
</svg>
