<svg width="69" height="70" viewBox="0 0 69 70" fill="none" xmlns="http://www.w3.org/2000/svg">
<rect width="69" height="69.2352" fill="black"/>
<path d="M20.6702 52.2352C17.7967 52.2352 15.2844 51.8419 13.1335 51.0552C10.9993 50.2528 9.31887 49.112 8.09214 47.6332C6.86542 46.1385 6.17645 44.3448 6.0252 42.2523L6 41.8747H13.1839L13.2343 42.1343C13.4023 43.0154 13.8224 43.7785 14.4946 44.4235C15.1836 45.0529 16.0742 45.5484 17.1665 45.9103C18.2587 46.2565 19.494 46.4295 20.8719 46.4295C22.2834 46.4295 23.4933 46.2565 24.5016 45.9103C25.5266 45.5484 26.3164 45.045 26.871 44.3999C27.4423 43.7391 27.7281 42.976 27.7281 42.1107V42.087C27.7281 40.9385 27.2408 40.0417 26.2661 39.3967C25.3082 38.7358 23.695 38.1852 21.4265 37.7446L17.595 37.0367C14.0157 36.3601 11.3186 35.2193 9.50372 33.6146C7.68883 32.0098 6.7814 29.925 6.7814 27.3605V27.3369C6.7814 25.2601 7.37796 23.4508 8.57107 21.9088C9.76418 20.3513 11.4026 19.1477 13.4863 18.298C15.5701 17.4327 17.9564 17 20.645 17C23.4514 17 25.8712 17.4091 27.9045 18.2273C29.9546 19.0453 31.551 20.2018 32.6937 21.6964C33.8364 23.1911 34.4666 24.9297 34.5843 26.9121L34.6094 27.3605H27.4256L27.4004 27.0774C27.2659 26.1805 26.9046 25.4175 26.3164 24.788C25.7283 24.143 24.9469 23.6474 23.9722 23.3013C23.0144 22.9551 21.9054 22.7821 20.645 22.7821C19.3511 22.7821 18.2336 22.963 17.2925 23.3249C16.3515 23.6711 15.6289 24.1509 15.1248 24.7645C14.6374 25.3781 14.3938 26.094 14.3938 26.9121V26.9357C14.3938 28.0056 14.8811 28.8709 15.8558 29.5317C16.8304 30.1926 18.3597 30.7196 20.4433 31.1129L24.2999 31.8446C26.8375 32.3166 28.9211 32.9696 30.5512 33.8034C32.1812 34.6373 33.3827 35.6914 34.1557 36.9659C34.9455 38.2245 35.3404 39.7427 35.3404 41.5207V41.5443C35.3404 43.7312 34.7523 45.6271 33.5759 47.232C32.4165 48.8211 30.736 50.0561 28.5347 50.9372C26.3501 51.8025 23.7286 52.2352 20.6702 52.2352ZM28.6688 51.6452L41.3728 17.59H48.0777V24.1981H45.7588L36.6592 51.6452H28.6688ZM35.4997 43.3851L37.3651 38.0514H54.329L56.1943 43.3851H35.4997ZM55.0095 51.6452L45.9101 24.1981V17.59H50.3211L63 51.6452H55.0095Z" fill="#A5A5A5"/>
</svg>
